<svg width="20" height="16" viewBox="0 0 20 16" fill="none" xmlns="http://www.w3.org/2000/svg">
<mask id="mask0_2616_287" style="mask-type:luminance" maskUnits="userSpaceOnUse" x="0" y="0" width="20" height="16">
<path d="M18.5714 0.857147H1.42857C0.639593 0.857147 0 1.49674 0 2.28572V13.7143C0 14.5033 0.639593 15.1429 1.42857 15.1429H18.5714C19.3604 15.1429 20 14.5033 20 13.7143V2.28572C20 1.49674 19.3604 0.857147 18.5714 0.857147Z" fill="white"/>
</mask>
<g mask="url(#mask0_2616_287)">
<path d="M18.5714 0.857147H1.42857C0.639593 0.857147 0 1.49674 0 2.28572V13.7143C0 14.5033 0.639593 15.1429 1.42857 15.1429H18.5714C19.3604 15.1429 20 14.5033 20 13.7143V2.28572C20 1.49674 19.3604 0.857147 18.5714 0.857147Z" fill="white"/>
<mask id="mask1_2616_287" style="mask-type:alpha" maskUnits="userSpaceOnUse" x="0" y="0" width="20" height="16">
<path d="M18.5714 0.857147H1.42857C0.639593 0.857147 0 1.49674 0 2.28572V13.7143C0 14.5033 0.639593 15.1429 1.42857 15.1429H18.5714C19.3604 15.1429 20 14.5033 20 13.7143V2.28572C20 1.49674 19.3604 0.857147 18.5714 0.857147Z" fill="white"/>
</mask>
<g mask="url(#mask1_2616_287)">
<path d="M20 0.857147H0V15.1429H20V0.857147Z" fill="#E92434"/>
<path fill-rule="evenodd" clip-rule="evenodd" d="M13.5863 8.54886L12.7114 9.6095L12.7711 8.23586L11.4919 7.7316L12.8167 7.36379L12.9011 5.99142L13.6603 7.13777L14.9915 6.79387L14.1359 7.87016L14.8744 9.03L13.5863 8.54886Z" fill="white"/>
<path fill-rule="evenodd" clip-rule="evenodd" d="M12.4305 10.6313C11.6463 11.6382 10.4225 12.2857 9.04743 12.2857C6.6805 12.2857 4.76172 10.3669 4.76172 8.00001C4.76172 5.63307 6.6805 3.71429 9.04743 3.71429C10.4225 3.71429 11.6463 4.36186 12.4305 5.36866C11.8253 4.92872 11.0644 4.66666 10.2378 4.66666C8.26536 4.66666 6.66637 6.15904 6.66637 7.99999C6.66637 9.84094 8.26536 11.3333 10.2378 11.3333C11.0644 11.3333 11.8254 11.0712 12.4305 10.6313Z" fill="white"/>
</g>
</g>
</svg>
